<svg xmlns="http://www.w3.org/2000/svg" xmlns:xlink="http://www.w3.org/1999/xlink" version="1.1" x="0px" y="0px" viewBox="0 0 32 32" enable-background="new 0 0 32 32" xml:space="preserve"><g><path d="M22.6,7.7c-0.1-0.2-0.2-0.4-0.4-0.5l-5.8-5.8c-0.1-0.1-0.3-0.3-0.5-0.4l0,6.7H22.6z"/><path d="M23.2,15.1V9.5c0-0.1,0-0.2,0-0.3h-7.9c-0.2,0-0.4-0.1-0.5-0.2c-0.1-0.1-0.2-0.3-0.2-0.5l0-7.9c-0.1,0-0.2,0-0.3,0H2.8   C1.8,0.5,1,1.3,1,2.3v22.1c0,1,0.8,1.8,1.8,1.8h12c-0.2-0.7-0.3-1.4-0.3-2.1C14.5,19.2,18.4,15.3,23.2,15.1z"/><path d="M23.5,16.6c-4.1,0-7.5,3.3-7.5,7.5c0,4.1,3.3,7.5,7.5,7.5c4.1,0,7.5-3.4,7.5-7.5C31,19.9,27.7,16.6,23.5,16.6z M27.2,24.8   h-2.9v2.9h-1.5v-2.9h-2.9v-1.5h2.9v-2.9h1.5v2.9h2.9V24.8z"/></g></svg>