<!DOCTYPE svg PUBLIC "-//W3C//DTD SVG 20010904//EN" "http://www.w3.org/TR/2001/REC-SVG-20010904/DTD/svg10.dtd">
<svg version="1.0" xmlns="http://www.w3.org/2000/svg" width="72px" height="72px" viewBox="0 0 720 720" preserveAspectRatio="xMidYMid meet">
<g id="layer101" fill="#010002" stroke="none">
 <path d="M107 702 c-15 -17 -17 -55 -17 -344 0 -302 1 -326 18 -341 16 -15 49 -17 254 -17 215 0 236 2 251 18 15 17 17 55 17 344 0 302 -1 326 -18 341 -16 15 -49 17 -254 17 -215 0 -236 -2 -251 -18z m468 -342 l0 -305 -215 0 -215 0 -3 295 c-1 162 0 301 3 308 3 10 52 12 217 10 l213 -3 0 -305z"/>
 <path d="M180 605 c0 -20 5 -25 25 -25 20 0 25 5 25 25 0 20 -5 25 -25 25 -20 0 -25 -5 -25 -25z"/>
 <path d="M270 605 c0 -20 5 -25 25 -25 20 0 25 5 25 25 0 20 -5 25 -25 25 -20 0 -25 -5 -25 -25z"/>
 <path d="M400 605 c0 -20 5 -25 25 -25 20 0 25 5 25 25 0 20 -5 25 -25 25 -20 0 -25 -5 -25 -25z"/>
 <path d="M490 605 c0 -20 5 -25 25 -25 20 0 25 5 25 25 0 20 -5 25 -25 25 -20 0 -25 -5 -25 -25z"/>
 <path d="M270 450 l0 -70 90 0 90 0 0 70 0 70 -90 0 -90 0 0 -70z m130 0 c0 -17 -7 -20 -40 -20 -33 0 -40 3 -40 20 0 17 7 20 40 20 33 0 40 -3 40 -20z"/>
 <path d="M180 295 l0 -25 180 0 180 0 0 25 0 25 -180 0 -180 0 0 -25z"/>
 <path d="M180 205 l0 -25 180 0 180 0 0 25 0 25 -180 0 -180 0 0 -25z"/>
 <path d="M180 115 l0 -25 180 0 180 0 0 25 0 25 -180 0 -180 0 0 -25z"/>
 </g>

</svg>