<!DOCTYPE svg PUBLIC "-//W3C//DTD SVG 20010904//EN" "http://www.w3.org/TR/2001/REC-SVG-20010904/DTD/svg10.dtd">
<svg version="1.0" xmlns="http://www.w3.org/2000/svg" width="72px" height="72px" viewBox="0 0 720 720" preserveAspectRatio="xMidYMid meet">
<g id="layer101" fill="#e09f7c" stroke="none">
 <path d="M93 642 c-10 -6 -18 -161 -14 -259 1 -10 35 -13 136 -13 l135 0 0 134 c0 113 -2 135 -16 140 -23 9 -227 7 -241 -2z"/>
 <path d="M383 643 c-10 -3 -13 -41 -13 -139 l0 -134 134 0 c113 0 135 2 140 16 3 9 6 64 6 124 0 142 2 140 -143 139 -62 0 -118 -3 -124 -6z"/>
 <path d="M78 225 c-2 -69 -1 -130 0 -135 2 -6 59 -10 138 -10 l134 0 0 135 0 135 -134 0 -135 0 -3 -125z"/>
 <path d="M370 215 l0 -135 134 0 c113 0 135 2 140 16 8 20 8 218 0 238 -5 14 -27 16 -140 16 l-134 0 0 -135z"/>
 </g>
<g id="layer102" fill="#bed275" stroke="none">
 <path d="M93 642 c-10 -6 -18 -161 -14 -259 1 -10 35 -13 136 -13 l135 0 0 134 c0 113 -2 135 -16 140 -23 9 -227 7 -241 -2z"/>
 <path d="M383 643 c-10 -3 -13 -41 -13 -139 l0 -134 134 0 c113 0 135 2 140 16 3 9 6 66 5 127 0 69 -4 102 -8 87 -10 -33 -51 -99 -51 -82 0 8 -22 12 -75 12 -41 0 -75 2 -75 5 0 3 12 27 28 55 l27 49 65 4 c37 2 16 4 -50 4 -63 1 -121 -1 -127 -4z"/>
 <path d="M484 575 c-8 -20 4 -35 27 -35 23 0 26 35 3 44 -22 8 -24 8 -30 -9z"/>
 <path d="M78 225 c-2 -69 -1 -130 0 -135 2 -6 59 -10 138 -10 l134 0 0 135 0 135 -134 0 -135 0 -3 -125z"/>
 <path d="M430 215 c0 -25 1 -25 81 -25 78 0 80 1 77 23 -3 20 -9 22 -80 25 -78 3 -78 3 -78 -23z"/>
 </g>
<g id="layer103" fill="#82d8d2" stroke="none">
 <path d="M383 643 c-10 -3 -13 -41 -13 -139 l0 -134 134 0 c113 0 135 2 140 16 3 9 6 66 5 127 0 69 -4 102 -8 87 -10 -33 -51 -99 -51 -82 0 8 -22 12 -75 12 -41 0 -75 2 -75 5 0 3 12 27 28 55 l27 49 65 4 c37 2 16 4 -50 4 -63 1 -121 -1 -127 -4z"/>
 <path d="M484 575 c-8 -20 4 -35 27 -35 23 0 26 35 3 44 -22 8 -24 8 -30 -9z"/>
 <path d="M157 563 c-16 -16 -15 -18 3 -38 l20 -22 -20 -18 c-19 -17 -19 -19 -3 -37 16 -18 17 -18 38 2 l22 20 18 -20 c17 -19 19 -19 37 -3 18 16 18 17 -4 40 -21 23 -22 25 -5 34 20 12 22 32 4 48 -11 8 -18 6 -32 -9 l-18 -20 -22 20 c-20 18 -22 19 -38 3z"/>
 <path d="M78 225 c-2 -69 -1 -130 0 -135 2 -6 59 -10 138 -10 l134 0 0 135 0 135 -134 0 -135 0 -3 -125z"/>
 <path d="M430 215 c0 -25 1 -25 81 -25 78 0 80 1 77 23 -3 20 -9 22 -80 25 -78 3 -78 3 -78 -23z"/>
 </g>
<g id="layer104" fill="#efd28c" stroke="none">
 <path d="M383 643 c-10 -3 -13 -41 -13 -139 l0 -134 134 0 c113 0 135 2 140 16 3 9 6 66 5 127 0 69 -4 102 -8 87 -10 -33 -51 -99 -51 -82 0 8 -22 12 -75 12 -41 0 -75 2 -75 5 0 3 12 27 28 55 l27 49 65 4 c37 2 16 4 -50 4 -63 1 -121 -1 -127 -4z"/>
 <path d="M484 575 c-8 -20 4 -35 27 -35 23 0 26 35 3 44 -22 8 -24 8 -30 -9z"/>
 <path d="M157 563 c-16 -16 -15 -18 3 -38 l20 -22 -20 -18 c-19 -17 -19 -19 -3 -37 16 -18 17 -18 38 2 l22 20 18 -20 c17 -19 19 -19 37 -3 18 16 18 17 -4 40 -21 23 -22 25 -5 34 20 12 22 32 4 48 -11 8 -18 6 -32 -9 l-18 -20 -22 20 c-20 18 -22 19 -38 3z"/>
 <path d="M190 266 c0 -19 -6 -25 -27 -28 -20 -2 -29 -9 -31 -25 -3 -20 1 -23 27 -23 28 0 31 -3 31 -31 0 -26 3 -30 23 -27 16 2 23 11 25 31 3 21 9 27 28 27 19 0 24 5 24 25 0 20 -5 25 -25 25 -20 0 -25 5 -25 25 0 20 -5 25 -25 25 -20 0 -25 -5 -25 -24z"/>
 <path d="M430 215 c0 -25 1 -25 81 -25 78 0 80 1 77 23 -3 20 -9 22 -80 25 -78 3 -78 3 -78 -23z"/>
 </g>
<g id="layer105" fill="#eeede9" stroke="none">
 <path d="M157 562 c-16 -18 -16 -20 3 -37 l20 -18 -20 -22 c-19 -20 -19 -23 -5 -35 13 -11 19 -10 35 5 19 17 21 17 40 0 19 -17 22 -18 37 -2 16 15 15 18 -2 38 -18 19 -19 21 -2 30 20 12 22 32 4 48 -11 8 -18 6 -32 -9 l-18 -20 -22 20 c-21 20 -22 20 -38 2z"/>
 <path d="M484 569 c-9 -15 12 -33 30 -26 9 4 16 13 16 22 0 17 -35 21 -46 4z"/>
 <path d="M430 505 c0 -26 0 -26 78 -23 71 3 77 5 80 26 3 21 1 22 -77 22 -80 0 -81 0 -81 -25z"/>
 <path d="M485 460 c-4 -7 -3 -16 3 -22 14 -14 45 -2 40 15 -6 16 -34 21 -43 7z"/>
 <path d="M190 266 c0 -19 -6 -25 -27 -28 -20 -2 -29 -9 -31 -25 -3 -20 1 -23 27 -23 28 0 31 -3 31 -31 0 -26 3 -30 23 -27 16 2 23 11 25 31 3 21 9 27 28 27 19 0 24 5 24 25 0 20 -5 25 -25 25 -20 0 -25 5 -25 25 0 20 -5 25 -25 25 -20 0 -25 -5 -25 -24z"/>
 <path d="M430 215 c0 -25 1 -25 81 -25 78 0 80 1 77 23 -3 20 -9 22 -80 25 -78 3 -78 3 -78 -23z"/>
 </g>

</svg>