<!DOCTYPE svg PUBLIC "-//W3C//DTD SVG 20010904//EN" "http://www.w3.org/TR/2001/REC-SVG-20010904/DTD/svg10.dtd">
<svg version="1.0" xmlns="http://www.w3.org/2000/svg" width="72px" height="72px" viewBox="0 0 720 720" preserveAspectRatio="xMidYMid meet">
<g id="layer101" fill="#6e6b6a" stroke="none">
 <path d="M52 598 c-17 -17 -17 -439 0 -456 7 -7 40 -12 79 -12 l68 0 3 -32 c2 -28 7 -33 28 -33 21 0 26 5 28 32 l3 33 99 0 99 0 3 -33 c2 -27 7 -32 28 -32 21 0 26 5 28 32 l3 33 68 0 c39 0 72 5 79 12 8 8 12 55 12 146 l0 134 -55 94 -56 94 -252 0 c-184 0 -256 -3 -265 -12z"/>
 </g>
<g id="layer102" fill="#da6e46" stroke="none">
 <path d="M52 598 c-17 -17 -17 -439 0 -456 7 -7 40 -12 79 -12 l68 0 3 -32 c2 -28 7 -33 28 -33 21 0 26 5 28 32 l3 33 99 0 99 0 3 -33 c2 -27 7 -32 28 -32 21 0 26 5 28 32 l3 33 68 0 c39 0 72 5 79 12 8 8 12 55 12 146 l0 134 -55 94 -56 94 -252 0 c-184 0 -256 -3 -265 -12z m336 -175 c-3 -111 -4 -118 -24 -121 -31 -4 -94 36 -94 60 0 15 5 18 20 13 19 -6 20 -2 20 79 l0 86 40 0 41 0 -3 -117z"/>
 </g>
<g id="layer103" fill="#d8d5d2" stroke="none">
 <path d="M52 598 c-9 -9 -11 -72 -10 -232 1 -122 3 -197 5 -169 l4 53 309 0 309 0 4 -52 c2 -29 4 9 5 85 l2 139 -55 94 -56 94 -252 0 c-184 0 -256 -3 -265 -12z m336 -175 c-3 -111 -4 -118 -24 -121 -31 -4 -94 36 -94 60 0 15 5 18 20 13 19 -6 20 -2 20 79 l0 86 40 0 41 0 -3 -117z"/>
 <path d="M207 194 c-4 -4 -7 -18 -7 -30 0 -22 -5 -23 -72 -27 l-73 -3 72 -2 72 -2 3 -32 c2 -28 7 -33 28 -33 21 0 26 5 28 33 l3 32 99 0 99 0 3 -32 c2 -28 7 -33 28 -33 21 0 26 5 28 32 l3 32 72 4 72 3 -72 2 c-70 2 -72 3 -75 30 -2 21 -8 27 -28 27 -20 0 -26 -6 -28 -27 l-3 -28 -99 0 -99 0 -3 28 c-3 26 -34 43 -51 26z"/>
 </g>

</svg>