<!DOCTYPE svg PUBLIC "-//W3C//DTD SVG 20010904//EN" "http://www.w3.org/TR/2001/REC-SVG-20010904/DTD/svg10.dtd">
<svg version="1.0" xmlns="http://www.w3.org/2000/svg" width="72px" height="72px" viewBox="0 0 720 720" preserveAspectRatio="xMidYMid meet">
<g id="layer101" fill="#010002" stroke="none">
 <path d="M17 612 c-15 -16 -17 -46 -17 -209 0 -171 2 -192 18 -206 10 -10 31 -17 45 -17 22 0 27 -5 27 -25 0 -23 4 -25 45 -25 41 0 45 2 45 25 0 43 41 33 84 -20 l37 -45 104 0 104 0 37 45 c35 43 39 45 89 45 84 0 85 3 85 227 0 171 -2 192 -18 206 -17 15 -55 17 -344 17 -302 0 -326 -1 -341 -18z m113 -208 l0 -175 -37 3 -38 3 -3 160 c-1 87 0 165 2 172 3 7 21 13 41 13 l35 0 0 -176z m535 1 l0 -170 -60 -3 c-58 -3 -61 -5 -93 -48 l-33 -44 -74 0 -74 0 -33 45 c-30 40 -37 44 -75 45 l-43 0 0 175 0 175 243 -2 242 -3 0 -170z"/>
 <path d="M330 555 c-69 -32 -110 -94 -110 -169 0 -76 37 -138 102 -172 41 -21 133 -18 177 7 116 65 122 242 10 316 -50 33 -128 41 -179 18z m148 -65 c85 -52 74 -177 -18 -225 -105 -54 -225 64 -174 170 33 71 123 97 192 55z"/>
 <path d="M339 451 c-23 -23 -29 -38 -29 -71 0 -57 33 -90 92 -90 61 1 89 25 95 83 5 41 2 49 -25 77 -42 41 -92 42 -133 1z m101 -50 c23 -44 -27 -78 -62 -43 -16 16 -18 23 -9 41 15 27 57 28 71 2z"/>
 <path d="M580 515 c0 -20 5 -25 25 -25 20 0 25 5 25 25 0 20 -5 25 -25 25 -20 0 -25 -5 -25 -25z"/>
 </g>

</svg>