<!DOCTYPE svg PUBLIC "-//W3C//DTD SVG 20010904//EN" "http://www.w3.org/TR/2001/REC-SVG-20010904/DTD/svg10.dtd">
<svg version="1.0" xmlns="http://www.w3.org/2000/svg" width="72px" height="72px" viewBox="0 0 720 720" preserveAspectRatio="xMidYMid meet">
<g id="layer101" fill="#010002" stroke="none">
 <path d="M40 650 c0 -67 1 -70 24 -70 21 0 24 -5 29 -67 3 -38 9 -76 12 -85 4 -11 3 -18 -4 -18 -6 0 -11 16 -11 35 0 31 -3 35 -25 35 -24 0 -25 -3 -25 -60 l0 -60 45 0 45 0 0 -45 0 -45 159 0 159 0 5 53 c2 28 11 70 20 92 16 40 16 39 17 -97 l0 -138 -43 0 c-33 0 -49 6 -67 25 -20 21 -32 25 -85 25 -53 0 -65 -4 -85 -25 -21 -22 -32 -25 -97 -25 l-73 0 0 -90 0 -90 276 0 c390 0 364 -29 364 415 l0 305 -320 0 -320 0 0 -70z m589 -242 c0 -283 -6 -323 -49 -345 -18 -9 -91 -13 -257 -13 l-233 0 0 40 0 40 225 0 225 0 0 250 0 250 -225 0 c-218 0 -225 1 -225 20 0 20 7 20 270 20 l270 0 -1 -262z m-191 109 c-9 -107 -9 -107 -148 -107 l-118 0 -11 33 c-6 17 -13 56 -17 85 l-7 52 153 0 153 0 -5 -63z m-38 -177 c0 -19 -7 -20 -105 -20 -98 0 -105 1 -105 20 0 19 7 20 105 20 98 0 105 -1 105 -20z"/>
 </g>

</svg>