<!DOCTYPE svg PUBLIC "-//W3C//DTD SVG 20010904//EN" "http://www.w3.org/TR/2001/REC-SVG-20010904/DTD/svg10.dtd">
<svg version="1.0" xmlns="http://www.w3.org/2000/svg" width="72px" height="72px" viewBox="0 0 720 720" preserveAspectRatio="xMidYMid meet">
<g id="layer101" fill="#7f7e79" stroke="none">
 <path d="M324 655 c-9 -48 -45 -58 -82 -22 -26 24 -38 25 -69 2 -2 -1 2 -17 7 -35 8 -27 6 -37 -7 -52 -9 -10 -24 -16 -35 -13 -10 3 -26 7 -36 10 -13 4 -22 -2 -29 -17 -9 -19 -7 -28 14 -50 36 -38 26 -73 -22 -82 -30 -6 -35 -11 -35 -36 0 -25 5 -30 35 -36 48 -9 58 -45 22 -82 -24 -26 -25 -38 -2 -69 1 -2 17 2 35 7 41 12 74 -10 64 -44 -3 -12 -8 -28 -10 -37 -3 -9 5 -20 18 -26 19 -9 28 -7 50 14 38 36 73 26 82 -22 6 -30 11 -35 36 -35 25 0 30 5 36 35 9 48 44 58 82 22 22 -21 31 -23 50 -14 15 7 21 16 17 29 -3 10 -7 26 -10 36 -3 11 3 26 13 35 15 13 25 15 52 7 18 -5 34 -9 35 -7 23 31 22 43 -2 69 -36 37 -26 73 22 82 30 6 35 11 35 36 0 25 -5 30 -35 36 -48 9 -58 44 -22 82 21 22 23 31 14 50 -7 15 -16 21 -29 17 -10 -3 -26 -7 -36 -10 -11 -3 -26 3 -35 13 -13 15 -15 25 -7 52 5 18 9 34 7 35 -31 23 -43 22 -69 -2 -37 -36 -73 -26 -82 22 -6 30 -11 35 -36 35 -25 0 -30 -5 -36 -35z m78 -252 c38 -34 11 -103 -40 -103 -54 0 -81 62 -45 102 20 22 61 23 85 1z"/>
 </g>
<g id="layer102" fill="#a8a8a1" stroke="none">
 <path d="M324 655 c-9 -48 -45 -58 -82 -22 -26 24 -38 25 -69 2 -2 -1 2 -17 7 -35 8 -27 6 -37 -7 -52 -9 -10 -24 -16 -35 -13 -10 3 -26 7 -36 10 -13 4 -22 -2 -29 -17 -9 -19 -7 -28 14 -50 36 -38 26 -73 -22 -82 -30 -6 -35 -11 -35 -36 0 -25 5 -30 35 -36 48 -9 58 -45 22 -82 -24 -26 -25 -38 -2 -69 1 -2 17 2 35 7 41 12 74 -10 64 -44 -3 -12 -8 -28 -10 -37 -3 -9 5 -20 18 -26 19 -9 28 -7 50 14 38 36 73 26 82 -22 6 -30 11 -35 36 -35 25 0 30 5 36 35 9 48 44 58 82 22 22 -21 31 -23 50 -14 15 7 21 16 17 29 -3 10 -7 26 -10 36 -3 11 3 26 13 35 15 13 25 15 52 7 18 -5 34 -9 35 -7 23 31 22 43 -2 69 -36 37 -26 73 22 82 30 6 35 11 35 36 0 25 -5 30 -35 36 -48 9 -58 44 -22 82 21 22 23 31 14 50 -7 15 -16 21 -29 17 -10 -3 -26 -7 -36 -10 -11 -3 -26 3 -35 13 -13 15 -15 25 -7 52 5 18 9 34 7 35 -31 23 -43 22 -69 -2 -37 -36 -73 -26 -82 22 -6 30 -11 35 -36 35 -25 0 -30 -5 -36 -35z m137 -96 c41 -21 99 -82 99 -105 0 -9 -12 -38 -27 -65 l-26 -49 -18 52 c-20 59 -43 82 -98 99 -32 10 -45 8 -84 -9 l-45 -20 30 51 c16 29 35 58 41 65 13 17 77 7 128 -19z m-59 -156 c38 -34 11 -103 -40 -103 -54 0 -81 62 -45 102 20 22 61 23 85 1z"/>
 </g>
<g id="layer103" fill="#c1c1bc" stroke="none">
 <path d="M324 655 c-9 -48 -45 -58 -82 -22 -26 24 -38 25 -69 2 -2 -1 2 -17 7 -35 8 -27 6 -37 -7 -52 -9 -10 -24 -16 -35 -13 -10 3 -26 7 -36 10 -13 4 -22 -2 -29 -17 -9 -19 -7 -28 14 -50 36 -38 26 -73 -22 -82 -30 -6 -35 -11 -35 -36 0 -25 5 -30 35 -36 48 -9 58 -45 22 -82 -24 -26 -25 -38 -2 -69 1 -2 17 2 35 7 41 12 74 -10 64 -44 -3 -12 -8 -28 -10 -37 -3 -9 5 -20 18 -26 19 -9 28 -7 50 14 38 36 73 26 82 -22 6 -30 11 -35 36 -35 25 0 30 5 36 35 9 48 44 58 82 22 22 -21 31 -23 50 -14 15 7 21 16 17 29 -3 10 -7 26 -10 36 -3 11 3 26 13 35 15 13 25 15 52 7 18 -5 34 -9 35 -7 23 31 22 43 -2 69 -36 37 -26 73 22 82 30 6 35 11 35 36 0 25 -5 30 -35 36 -48 9 -58 45 -22 82 23 24 24 29 12 52 l-13 24 -31 -49 c-25 -39 -30 -56 -25 -80 34 -152 -68 -288 -216 -288 -124 0 -222 98 -222 223 0 109 63 186 182 223 9 3 28 28 43 56 l28 51 -30 0 c-27 0 -31 -4 -37 -35z"/>
 <path d="M294 471 c-46 -28 -64 -59 -64 -109 0 -80 51 -132 130 -132 52 0 95 25 115 66 57 121 -70 243 -181 175z m111 -66 c31 -30 32 -58 3 -85 -45 -41 -108 -15 -108 46 0 60 62 83 105 39z"/>
 </g>

</svg>