<!DOCTYPE svg PUBLIC "-//W3C//DTD SVG 20010904//EN" "http://www.w3.org/TR/2001/REC-SVG-20010904/DTD/svg10.dtd">
<svg version="1.0" xmlns="http://www.w3.org/2000/svg" width="72px" height="72px" viewBox="0 0 720 720" preserveAspectRatio="xMidYMid meet">
<g id="layer101" fill="#010002" stroke="none">
 <path d="M40 675 c0 -38 -3 -45 -20 -45 -19 0 -20 -7 -20 -175 0 -219 12 -259 104 -351 78 -78 143 -104 256 -104 113 0 178 26 256 104 92 92 104 132 104 351 0 168 -1 175 -20 175 -17 0 -20 7 -20 45 l0 45 -70 0 -70 0 0 -160 0 -160 66 0 67 0 -6 -59 c-10 -114 -74 -209 -175 -258 -81 -39 -184 -40 -264 0 -101 50 -165 144 -175 258 l-6 59 67 0 66 0 0 160 0 160 -70 0 -70 0 0 -45z m90 -115 c0 -103 -1 -110 -20 -110 -19 0 -20 7 -20 110 0 103 1 110 20 110 19 0 20 -7 20 -110z m500 0 c0 -103 -1 -110 -20 -110 -19 0 -20 7 -20 110 0 103 1 110 20 110 19 0 20 -7 20 -110z"/>
 </g>

</svg>