<!DOCTYPE svg PUBLIC "-//W3C//DTD SVG 20010904//EN" "http://www.w3.org/TR/2001/REC-SVG-20010904/DTD/svg10.dtd">
<svg version="1.0" xmlns="http://www.w3.org/2000/svg" width="72px" height="72px" viewBox="0 0 720 720" preserveAspectRatio="xMidYMid meet">
<g id="layer101" fill="#000000" stroke="none">
 <path d="M115 695 c-31 -31 -32 -68 -5 -276 25 -191 26 -195 50 -219 18 -18 34 -20 196 -20 96 0 183 4 193 10 29 15 39 54 61 225 27 215 26 249 -5 280 l-24 25 -221 0 -221 0 -24 -25z m454 -39 c16 -19 -24 -369 -46 -403 -13 -22 -19 -23 -161 -23 -81 0 -153 4 -160 9 -21 13 -68 397 -52 416 18 22 402 22 419 1z"/>
 <path d="M307 612 c-40 -44 -5 -122 53 -122 59 0 95 85 52 123 -25 23 -85 22 -105 -1z m68 -41 c7 -12 -12 -24 -25 -16 -11 7 -4 25 10 25 5 0 11 -4 15 -9z"/>
 <path d="M220 385 l0 -25 140 0 140 0 0 25 0 25 -140 0 -140 0 0 -25z"/>
 <path d="M220 295 l0 -25 140 0 140 0 0 25 0 25 -140 0 -140 0 0 -25z"/>
 <path d="M180 115 c0 -20 5 -25 25 -25 20 0 25 5 25 25 0 20 -5 25 -25 25 -20 0 -25 -5 -25 -25z"/>
 <path d="M270 115 c0 -20 5 -25 25 -25 20 0 25 5 25 25 0 20 -5 25 -25 25 -20 0 -25 -5 -25 -25z"/>
 <path d="M400 115 c0 -20 5 -25 25 -25 20 0 25 5 25 25 0 20 -5 25 -25 25 -20 0 -25 -5 -25 -25z"/>
 <path d="M490 115 c0 -20 5 -25 25 -25 20 0 25 5 25 25 0 20 -5 25 -25 25 -20 0 -25 -5 -25 -25z"/>
 <path d="M130 25 c0 -20 5 -25 25 -25 20 0 25 5 25 25 0 20 -5 25 -25 25 -20 0 -25 -5 -25 -25z"/>
 <path d="M220 25 c0 -20 5 -25 25 -25 20 0 25 5 25 25 0 20 -5 25 -25 25 -20 0 -25 -5 -25 -25z"/>
 <path d="M450 25 c0 -20 5 -25 25 -25 20 0 25 5 25 25 0 20 -5 25 -25 25 -20 0 -25 -5 -25 -25z"/>
 <path d="M540 25 c0 -20 5 -25 25 -25 20 0 25 5 25 25 0 20 -5 25 -25 25 -20 0 -25 -5 -25 -25z"/>
 </g>

</svg>